<svg width="16" height="16" viewBox="0 0 16 16" fill="none" xmlns="http://www.w3.org/2000/svg">
<g clip-path="url(#clip0_3501_833)">
<mask id="path-1-inside-1_3501_833" fill="white">
<path fill-rule="evenodd" clip-rule="evenodd" d="M0 0.5C0 0.367392 0.0526784 0.240215 0.146447 0.146447C0.240215 0.0526784 0.367392 0 0.5 0L3.5 0C3.63261 0 3.75979 0.0526784 3.85355 0.146447C3.94732 0.240215 4 0.367392 4 0.5C4 0.632608 3.94732 0.759785 3.85355 0.853553C3.75979 0.947322 3.63261 1 3.5 1H1.707L3.5 2.793L4.146 2.146C4.19249 2.09951 4.24768 2.06264 4.30842 2.03748C4.36916 2.01232 4.43426 1.99937 4.5 1.99937C4.56574 1.99937 4.63084 2.01232 4.69158 2.03748C4.75232 2.06264 4.80751 2.09951 4.854 2.146C4.90049 2.19249 4.93736 2.24768 4.96252 2.30842C4.98768 2.36916 5.00063 2.43426 5.00063 2.5C5.00063 2.56574 4.98768 2.63084 4.96252 2.69158C4.93736 2.75232 4.90049 2.80751 4.854 2.854L4.207 3.5L5.029 4.322C5.40404 3.90589 5.8623 3.5732 6.3741 3.34546C6.8859 3.11773 7.43982 3.00003 8 3C9.18 3 10.239 3.51 10.971 4.322L14.293 1H11.5C11.3674 1 11.2402 0.947322 11.1464 0.853553C11.0527 0.759785 11 0.632608 11 0.5C11 0.367392 11.0527 0.240215 11.1464 0.146447C11.2402 0.0526784 11.3674 0 11.5 0L15.5 0C15.6326 0 15.7598 0.0526784 15.8536 0.146447C15.9473 0.240215 16 0.367392 16 0.5V4.5C16 4.63261 15.9473 4.75979 15.8536 4.85355C15.7598 4.94732 15.6326 5 15.5 5C15.3674 5 15.2402 4.94732 15.1464 4.85355C15.0527 4.75979 15 4.63261 15 4.5V1.707L11.55 5.157C11.8473 5.7291 12.0018 6.36457 12.0005 7.00929C11.9993 7.65401 11.8422 8.28886 11.5426 8.85977C11.2431 9.43067 10.81 9.92071 10.2802 10.2881C9.75041 10.6556 9.13967 10.8895 8.5 10.97V13H10C10.1326 13 10.2598 13.0527 10.3536 13.1464C10.4473 13.2402 10.5 13.3674 10.5 13.5C10.5 13.6326 10.4473 13.7598 10.3536 13.8536C10.2598 13.9473 10.1326 14 10 14H8.5V15.5C8.5 15.6326 8.44732 15.7598 8.35355 15.8536C8.25979 15.9473 8.13261 16 8 16C7.86739 16 7.74021 15.9473 7.64645 15.8536C7.55268 15.7598 7.5 15.6326 7.5 15.5V14H6C5.86739 14 5.74021 13.9473 5.64645 13.8536C5.55268 13.7598 5.5 13.6326 5.5 13.5C5.5 13.3674 5.55268 13.2402 5.64645 13.1464C5.74021 13.0527 5.86739 13 6 13H7.5V10.97C6.86019 10.8896 6.24931 10.6556 5.71942 10.2881C5.18953 9.92065 4.75634 9.4305 4.45677 8.85946C4.15721 8.28841 4.00014 7.65341 3.99896 7.00856C3.99778 6.36371 4.15252 5.72814 4.45 5.156L3.5 4.207L2.854 4.854C2.80751 4.90049 2.75232 4.93736 2.69158 4.96252C2.63084 4.98768 2.56574 5.00063 2.5 5.00063C2.43426 5.00063 2.36916 4.98768 2.30842 4.96252C2.24768 4.93736 2.19249 4.90049 2.146 4.854C2.09951 4.80751 2.06264 4.75232 2.03748 4.69158C2.01232 4.63084 1.99937 4.56574 1.99937 4.5C1.99937 4.43426 2.01232 4.36916 2.03748 4.30842C2.06264 4.24768 2.09951 4.19249 2.146 4.146L2.793 3.5L1 1.707V3.5C1 3.63261 0.947322 3.75979 0.853553 3.85355C0.759785 3.94732 0.632608 4 0.5 4C0.367392 4 0.240215 3.94732 0.146447 3.85355C0.0526784 3.75979 0 3.63261 0 3.5V0.5ZM5.49 5.356C5.27411 5.68562 5.12525 6.05453 5.05193 6.44168C4.97861 6.82882 4.98226 7.22662 5.06268 7.61235C5.14309 7.99809 5.2987 8.36421 5.52061 8.68981C5.74252 9.0154 6.02638 9.29411 6.356 9.51C6.68562 9.72589 7.05453 9.87475 7.44168 9.94807C7.82882 10.0214 8.22662 10.0177 8.61235 9.93732C8.99809 9.85691 9.36421 9.7013 9.68981 9.47939C10.0154 9.25748 10.2941 8.97362 10.51 8.644C10.946 7.97831 11.0997 7.16667 10.9373 6.38765C10.7749 5.60862 10.3097 4.92602 9.644 4.49C8.97831 4.05398 8.16667 3.90027 7.38765 4.06268C6.60862 4.22508 5.92602 4.69031 5.49 5.356Z"/>
</mask>
<path fill-rule="evenodd" clip-rule="evenodd" d="M0 0.5C0 0.367392 0.0526784 0.240215 0.146447 0.146447C0.240215 0.0526784 0.367392 0 0.5 0L3.5 0C3.63261 0 3.75979 0.0526784 3.85355 0.146447C3.94732 0.240215 4 0.367392 4 0.5C4 0.632608 3.94732 0.759785 3.85355 0.853553C3.75979 0.947322 3.63261 1 3.5 1H1.707L3.5 2.793L4.146 2.146C4.19249 2.09951 4.24768 2.06264 4.30842 2.03748C4.36916 2.01232 4.43426 1.99937 4.5 1.99937C4.56574 1.99937 4.63084 2.01232 4.69158 2.03748C4.75232 2.06264 4.80751 2.09951 4.854 2.146C4.90049 2.19249 4.93736 2.24768 4.96252 2.30842C4.98768 2.36916 5.00063 2.43426 5.00063 2.5C5.00063 2.56574 4.98768 2.63084 4.96252 2.69158C4.93736 2.75232 4.90049 2.80751 4.854 2.854L4.207 3.5L5.029 4.322C5.40404 3.90589 5.8623 3.5732 6.3741 3.34546C6.8859 3.11773 7.43982 3.00003 8 3C9.18 3 10.239 3.51 10.971 4.322L14.293 1H11.5C11.3674 1 11.2402 0.947322 11.1464 0.853553C11.0527 0.759785 11 0.632608 11 0.5C11 0.367392 11.0527 0.240215 11.1464 0.146447C11.2402 0.0526784 11.3674 0 11.5 0L15.5 0C15.6326 0 15.7598 0.0526784 15.8536 0.146447C15.9473 0.240215 16 0.367392 16 0.5V4.5C16 4.63261 15.9473 4.75979 15.8536 4.85355C15.7598 4.94732 15.6326 5 15.5 5C15.3674 5 15.2402 4.94732 15.1464 4.85355C15.0527 4.75979 15 4.63261 15 4.5V1.707L11.55 5.157C11.8473 5.7291 12.0018 6.36457 12.0005 7.00929C11.9993 7.65401 11.8422 8.28886 11.5426 8.85977C11.2431 9.43067 10.81 9.92071 10.2802 10.2881C9.75041 10.6556 9.13967 10.8895 8.5 10.97V13H10C10.1326 13 10.2598 13.0527 10.3536 13.1464C10.4473 13.2402 10.5 13.3674 10.5 13.5C10.5 13.6326 10.4473 13.7598 10.3536 13.8536C10.2598 13.9473 10.1326 14 10 14H8.5V15.5C8.5 15.6326 8.44732 15.7598 8.35355 15.8536C8.25979 15.9473 8.13261 16 8 16C7.86739 16 7.74021 15.9473 7.64645 15.8536C7.55268 15.7598 7.5 15.6326 7.5 15.5V14H6C5.86739 14 5.74021 13.9473 5.64645 13.8536C5.55268 13.7598 5.5 13.6326 5.5 13.5C5.5 13.3674 5.55268 13.2402 5.64645 13.1464C5.74021 13.0527 5.86739 13 6 13H7.5V10.97C6.86019 10.8896 6.24931 10.6556 5.71942 10.2881C5.18953 9.92065 4.75634 9.4305 4.45677 8.85946C4.15721 8.28841 4.00014 7.65341 3.99896 7.00856C3.99778 6.36371 4.15252 5.72814 4.45 5.156L3.5 4.207L2.854 4.854C2.80751 4.90049 2.75232 4.93736 2.69158 4.96252C2.63084 4.98768 2.56574 5.00063 2.5 5.00063C2.43426 5.00063 2.36916 4.98768 2.30842 4.96252C2.24768 4.93736 2.19249 4.90049 2.146 4.854C2.09951 4.80751 2.06264 4.75232 2.03748 4.69158C2.01232 4.63084 1.99937 4.56574 1.99937 4.5C1.99937 4.43426 2.01232 4.36916 2.03748 4.30842C2.06264 4.24768 2.09951 4.19249 2.146 4.146L2.793 3.5L1 1.707V3.5C1 3.63261 0.947322 3.75979 0.853553 3.85355C0.759785 3.94732 0.632608 4 0.5 4C0.367392 4 0.240215 3.94732 0.146447 3.85355C0.0526784 3.75979 0 3.63261 0 3.5V0.5ZM5.49 5.356C5.27411 5.68562 5.12525 6.05453 5.05193 6.44168C4.97861 6.82882 4.98226 7.22662 5.06268 7.61235C5.14309 7.99809 5.2987 8.36421 5.52061 8.68981C5.74252 9.0154 6.02638 9.29411 6.356 9.51C6.68562 9.72589 7.05453 9.87475 7.44168 9.94807C7.82882 10.0214 8.22662 10.0177 8.61235 9.93732C8.99809 9.85691 9.36421 9.7013 9.68981 9.47939C10.0154 9.25748 10.2941 8.97362 10.51 8.644C10.946 7.97831 11.0997 7.16667 10.9373 6.38765C10.7749 5.60862 10.3097 4.92602 9.644 4.49C8.97831 4.05398 8.16667 3.90027 7.38765 4.06268C6.60862 4.22508 5.92602 4.69031 5.49 5.356Z" fill="#642D56"/>
<path d="M0 0.5H-2H0ZM0.5 0V-2V0ZM3.5 1V3V1ZM1.707 1V-1H-3.12143L0.292786 2.41421L1.707 1ZM3.5 2.793L2.08579 4.20721L3.50109 5.62252L4.91531 4.20612L3.5 2.793ZM4.146 2.146L2.73179 0.731786L2.73069 0.732881L4.146 2.146ZM4.5 1.99937V-0.000631571V1.99937ZM4.854 2.854L6.26712 4.26931L6.26821 4.26821L4.854 2.854ZM4.207 3.5L2.79388 2.08469L1.37748 3.49891L2.79279 4.91421L4.207 3.5ZM5.029 4.322L3.61479 5.73621L5.10431 7.22574L6.51462 5.661L5.029 4.322ZM8 3V1H7.99988L8 3ZM10.971 4.322L9.4855 5.66114L10.8958 7.2256L12.3852 5.73621L10.971 4.322ZM14.293 1L15.7072 2.41421L19.1214 -1H14.293V1ZM11.5 1V3V1ZM11.5 0V-2V0ZM15 1.707H17V-3.12143L13.5858 0.292787L15 1.707ZM11.55 5.157L10.1358 3.74279L9.09967 4.77891L9.77528 6.07915L11.55 5.157ZM8.5 10.97L8.25028 8.98565L6.5 9.20592V10.97H8.5ZM8.5 13H6.5V15H8.5V13ZM8.5 14V12H6.5V14H8.5ZM7.5 14H9.5V12H7.5V14ZM7.5 13V15H9.5V13H7.5ZM7.5 10.97H9.5V9.2057L7.74948 8.98562L7.5 10.97ZM4.45 5.156L6.22448 6.07862L6.90099 4.77748L5.86347 3.74104L4.45 5.156ZM3.5 4.207L4.91347 2.79204L3.49816 1.37822L2.08469 2.79388L3.5 4.207ZM2.854 4.854L4.26821 6.26821L4.26931 6.26712L2.854 4.854ZM2.5 5.00063V3.00063V5.00063ZM1.99937 4.5H3.99937H1.99937ZM2.146 4.146L0.73288 2.73069L0.731786 2.73179L2.146 4.146ZM2.793 3.5L4.20612 4.91531L5.62252 3.50109L4.20721 2.08579L2.793 3.5ZM1 1.707L2.41421 0.292786L-1 -3.12143V1.707H1ZM1 3.5H3H1ZM0 3.5H-2H0ZM5.49 5.356L7.16307 6.45183V6.45183L5.49 5.356ZM10.51 8.644L8.83693 7.54817L10.51 8.644ZM0 0.5H2C2 0.897825 1.84196 1.27936 1.56066 1.56066L0.146447 0.146447L-1.26777 -1.26777C-1.73661 -0.798926 -2 -0.163041 -2 0.5H0ZM0.146447 0.146447L1.56066 1.56066C1.27936 1.84196 0.897825 2 0.5 2V0V-2C-0.163041 -2 -0.798926 -1.73661 -1.26777 -1.26777L0.146447 0.146447ZM0.5 0V2H3.5V0V-2H0.5V0ZM3.5 0V2C3.10217 2 2.72064 1.84196 2.43934 1.56066L3.85355 0.146447L5.26777 -1.26777C4.79893 -1.73661 4.16304 -2 3.5 -2V0ZM3.85355 0.146447L2.43934 1.56066C2.15804 1.27936 2 0.897826 2 0.5H4H6C6 -0.163042 5.73661 -0.798927 5.26777 -1.26777L3.85355 0.146447ZM4 0.5H2C2 0.102174 2.15804 -0.279356 2.43934 -0.56066L3.85355 0.853553L5.26777 2.26777C5.73661 1.79893 6 1.16304 6 0.5H4ZM3.85355 0.853553L2.43934 -0.56066C2.72064 -0.841965 3.10217 -1 3.5 -1V1V3C4.16304 3 4.79893 2.73661 5.26777 2.26777L3.85355 0.853553ZM3.5 1V-1H1.707V1V3H3.5V1ZM1.707 1L0.292786 2.41421L2.08579 4.20721L3.5 2.793L4.91421 1.37879L3.12121 -0.414214L1.707 1ZM3.5 2.793L4.91531 4.20612L5.56131 3.55912L4.146 2.146L2.73069 0.732881L2.08469 1.37988L3.5 2.793ZM4.146 2.146L5.56021 3.56021C5.42098 3.69944 5.25569 3.80989 5.07378 3.88524L4.30842 2.03748L3.54305 0.189718C3.23966 0.315386 2.96399 0.49958 2.73179 0.731786L4.146 2.146ZM4.30842 2.03748L5.07378 3.88524C4.89187 3.96059 4.6969 3.99937 4.5 3.99937V1.99937V-0.000631571C4.17161 -0.000631566 3.84644 0.0640492 3.54305 0.189718L4.30842 2.03748ZM4.5 1.99937V3.99937C4.3031 3.99937 4.10813 3.96059 3.92622 3.88524L4.69158 2.03748L5.45695 0.189718C5.15356 0.0640492 4.82839 -0.000631576 4.5 -0.000631571V1.99937ZM4.69158 2.03748L3.92622 3.88524C3.74431 3.80989 3.57902 3.69944 3.43979 3.56021L4.854 2.146L6.26821 0.731786C6.03601 0.49958 5.76034 0.315386 5.45695 0.189718L4.69158 2.03748ZM4.854 2.146L3.43979 3.56021C3.30056 3.42098 3.19011 3.2557 3.11476 3.07378L4.96252 2.30842L6.81028 1.54305C6.68461 1.23966 6.50042 0.963991 6.26821 0.731786L4.854 2.146ZM4.96252 2.30842L3.11476 3.07378C3.03941 2.89187 3.00063 2.6969 3.00063 2.5H5.00063H7.00063C7.00063 2.17161 6.93595 1.84644 6.81028 1.54305L4.96252 2.30842ZM5.00063 2.5H3.00063C3.00063 2.3031 3.03941 2.10813 3.11476 1.92622L4.96252 2.69158L6.81028 3.45695C6.93595 3.15356 7.00063 2.82839 7.00063 2.5H5.00063ZM4.96252 2.69158L3.11476 1.92622C3.19011 1.7443 3.30056 1.57902 3.43979 1.43979L4.854 2.854L6.26821 4.26821C6.50042 4.03601 6.68461 3.76034 6.81028 3.45695L4.96252 2.69158ZM4.854 2.854L3.44088 1.43869L2.79388 2.08469L4.207 3.5L5.62012 4.91531L6.26712 4.26931L4.854 2.854ZM4.207 3.5L2.79279 4.91421L3.61479 5.73621L5.029 4.322L6.44321 2.90779L5.62121 2.08579L4.207 3.5ZM5.029 4.322L6.51462 5.661C6.70214 5.45295 6.93127 5.2866 7.18717 5.17273L6.3741 3.34546L5.56102 1.5182C4.79332 1.8598 4.10594 2.35884 3.54338 2.983L5.029 4.322ZM6.3741 3.34546L7.18717 5.17273C7.44307 5.05887 7.72003 5.00002 8.00012 5L8 3L7.99988 1C7.15961 1.00005 6.32872 1.1766 5.56102 1.5182L6.3741 3.34546ZM8 3V5C8.59022 5 9.11681 5.25216 9.4855 5.66114L10.971 4.322L12.4565 2.98286C11.3612 1.76784 9.76978 1 8 1V3ZM10.971 4.322L12.3852 5.73621L15.7072 2.41421L14.293 1L12.8788 -0.414214L9.55679 2.90779L10.971 4.322ZM14.293 1V-1H11.5V1V3H14.293V1ZM11.5 1V-1C11.8978 -1 12.2794 -0.841966 12.5607 -0.56066L11.1464 0.853553L9.73223 2.26777C10.2011 2.73661 10.837 3 11.5 3V1ZM11.1464 0.853553L12.5607 -0.56066C12.842 -0.279353 13 0.102179 13 0.5H11H9C9 1.16304 9.26339 1.79892 9.73223 2.26777L11.1464 0.853553ZM11 0.5H13C13 0.897821 12.842 1.27935 12.5607 1.56066L11.1464 0.146447L9.73223 -1.26777C9.26339 -0.798923 9 -0.163037 9 0.5H11ZM11.1464 0.146447L12.5607 1.56066C12.2794 1.84197 11.8978 2 11.5 2V0V-2C10.837 -2 10.2011 -1.73661 9.73223 -1.26777L11.1464 0.146447ZM11.5 0V2H15.5V0V-2H11.5V0ZM15.5 0V2C15.1022 2 14.7206 1.84197 14.4393 1.56066L15.8536 0.146447L17.2678 -1.26777C16.7989 -1.73661 16.163 -2 15.5 -2V0ZM15.8536 0.146447L14.4393 1.56066C14.158 1.27935 14 0.897821 14 0.5H16H18C18 -0.163037 17.7366 -0.798923 17.2678 -1.26777L15.8536 0.146447ZM16 0.5H14V4.5H16H18V0.5H16ZM16 4.5H14C14 4.10218 14.158 3.72065 14.4393 3.43934L15.8536 4.85355L17.2678 6.26777C17.7366 5.79892 18 5.16304 18 4.5H16ZM15.8536 4.85355L14.4393 3.43934C14.7206 3.15803 15.1022 3 15.5 3V5V7C16.163 7 16.7989 6.73661 17.2678 6.26777L15.8536 4.85355ZM15.5 5V3C15.8978 3 16.2794 3.15803 16.5607 3.43934L15.1464 4.85355L13.7322 6.26777C14.2011 6.73661 14.837 7 15.5 7V5ZM15.1464 4.85355L16.5607 3.43934C16.842 3.72065 17 4.10218 17 4.5H15H13C13 5.16304 13.2634 5.79892 13.7322 6.26777L15.1464 4.85355ZM15 4.5H17V1.707H15H13V4.5H15ZM15 1.707L13.5858 0.292787L10.1358 3.74279L11.55 5.157L12.9642 6.57121L16.4142 3.12121L15 1.707ZM11.55 5.157L9.77528 6.07915C9.92391 6.3652 10.0012 6.68294 10.0006 7.0053L12.0005 7.00929L14.0005 7.01328C14.0025 6.04621 13.7706 5.09299 13.3247 4.23485L11.55 5.157ZM12.0005 7.00929L10.0006 7.0053C9.99991 7.32766 9.92136 7.64508 9.77158 7.93053L11.5426 8.85977L13.3136 9.789C13.763 8.93264 13.9986 7.98036 14.0005 7.01328L12.0005 7.00929ZM11.5426 8.85977L9.77158 7.93053C9.62181 8.21599 9.40526 8.46101 9.14037 8.64472L10.2802 10.2881L11.42 11.9316C12.2146 11.3804 12.8643 10.6454 13.3136 9.789L11.5426 8.85977ZM10.2802 10.2881L9.14037 8.64472C8.87548 8.82844 8.57011 8.9454 8.25028 8.98565L8.5 10.97L8.74972 12.9543C9.70923 12.8336 10.6253 12.4827 11.42 11.9316L10.2802 10.2881ZM8.5 10.97H6.5V13H8.5H10.5V10.97H8.5ZM8.5 13V15H10V13V11H8.5V13ZM10 13V15C9.60218 15 9.22065 14.842 8.93934 14.5607L10.3536 13.1464L11.7678 11.7322C11.2989 11.2634 10.663 11 10 11V13ZM10.3536 13.1464L8.93934 14.5607C8.65803 14.2794 8.5 13.8978 8.5 13.5H10.5H12.5C12.5 12.837 12.2366 12.2011 11.7678 11.7322L10.3536 13.1464ZM10.5 13.5H8.5C8.5 13.1022 8.65803 12.7206 8.93934 12.4393L10.3536 13.8536L11.7678 15.2678C12.2366 14.7989 12.5 14.163 12.5 13.5H10.5ZM10.3536 13.8536L8.93934 12.4393C9.22065 12.158 9.60218 12 10 12V14V16C10.663 16 11.2989 15.7366 11.7678 15.2678L10.3536 13.8536ZM10 14V12H8.5V14V16H10V14ZM8.5 14H6.5V15.5H8.5H10.5V14H8.5ZM8.5 15.5H6.5C6.5 15.1022 6.65803 14.7206 6.93934 14.4393L8.35355 15.8536L9.76777 17.2678C10.2366 16.7989 10.5 16.163 10.5 15.5H8.5ZM8.35355 15.8536L6.93934 14.4393C7.22065 14.158 7.60218 14 8 14V16V18C8.66304 18 9.29892 17.7366 9.76777 17.2678L8.35355 15.8536ZM8 16V14C8.39782 14 8.77935 14.158 9.06066 14.4393L7.64645 15.8536L6.23223 17.2678C6.70108 17.7366 7.33696 18 8 18V16ZM7.64645 15.8536L9.06066 14.4393C9.34197 14.7206 9.5 15.1022 9.5 15.5H7.5H5.5C5.5 16.163 5.76339 16.7989 6.23223 17.2678L7.64645 15.8536ZM7.5 15.5H9.5V14H7.5H5.5V15.5H7.5ZM7.5 14V12H6V14V16H7.5V14ZM6 14V12C6.39782 12 6.77935 12.158 7.06066 12.4393L5.64645 13.8536L4.23223 15.2678C4.70108 15.7366 5.33696 16 6 16V14ZM5.64645 13.8536L7.06066 12.4393C7.34197 12.7206 7.5 13.1022 7.5 13.5H5.5H3.5C3.5 14.163 3.76339 14.7989 4.23223 15.2678L5.64645 13.8536ZM5.5 13.5H7.5C7.5 13.8978 7.34197 14.2794 7.06066 14.5607L5.64645 13.1464L4.23223 11.7322C3.76339 12.2011 3.5 12.837 3.5 13.5H5.5ZM5.64645 13.1464L7.06066 14.5607C6.77935 14.842 6.39782 15 6 15V13V11C5.33696 11 4.70108 11.2634 4.23223 11.7322L5.64645 13.1464ZM6 13V15H7.5V13V11H6V13ZM7.5 13H9.5V10.97H7.5H5.5V13H7.5ZM7.5 10.97L7.74948 8.98562C7.42957 8.9454 7.12413 8.82844 6.85919 8.64469L5.71942 10.2881L4.57965 11.9316C5.37448 12.4828 6.2908 12.8337 7.25052 12.9544L7.5 10.97ZM5.71942 10.2881L6.85919 8.64469C6.59424 8.46095 6.37765 8.21587 6.22787 7.93035L4.45677 8.85946L2.68568 9.78856C3.13504 10.6451 3.78482 11.3804 4.57965 11.9316L5.71942 10.2881ZM4.45677 8.85946L6.22787 7.93035C6.07808 7.64483 5.99955 7.32732 5.99896 7.0049L3.99896 7.00856L1.99897 7.01222C2.00073 7.97949 2.23633 8.932 2.68568 9.78856L4.45677 8.85946ZM3.99896 7.00856L5.99896 7.0049C5.99837 6.68248 6.07574 6.36469 6.22448 6.07862L4.45 5.156L2.67552 4.23338C2.22931 5.09158 1.9972 6.04494 1.99897 7.01222L3.99896 7.00856ZM4.45 5.156L5.86347 3.74104L4.91347 2.79204L3.5 4.207L2.08653 5.62196L3.03653 6.57096L4.45 5.156ZM3.5 4.207L2.08469 2.79388L1.43869 3.44088L2.854 4.854L4.26931 6.26712L4.91531 5.62012L3.5 4.207ZM2.854 4.854L1.43979 3.43979C1.57902 3.30056 1.7443 3.19011 1.92622 3.11476L2.69158 4.96252L3.45695 6.81028C3.76034 6.68461 4.03601 6.50042 4.26821 6.26821L2.854 4.854ZM2.69158 4.96252L1.92622 3.11476C2.10813 3.03941 2.3031 3.00063 2.5 3.00063V5.00063V7.00063C2.82839 7.00063 3.15356 6.93595 3.45695 6.81028L2.69158 4.96252ZM2.5 5.00063V3.00063C2.6969 3.00063 2.89187 3.03941 3.07378 3.11476L2.30842 4.96252L1.54305 6.81028C1.84644 6.93595 2.17161 7.00063 2.5 7.00063V5.00063ZM2.30842 4.96252L3.07378 3.11476C3.2557 3.19011 3.42098 3.30056 3.56021 3.43979L2.146 4.854L0.731786 6.26821C0.963991 6.50042 1.23966 6.68461 1.54305 6.81028L2.30842 4.96252ZM2.146 4.854L3.56021 3.43979C3.69944 3.57902 3.80989 3.74431 3.88524 3.92622L2.03748 4.69158L0.189718 5.45695C0.315386 5.76034 0.49958 6.03601 0.731786 6.26821L2.146 4.854ZM2.03748 4.69158L3.88524 3.92622C3.96059 4.10813 3.99937 4.3031 3.99937 4.5H1.99937H-0.000631571C-0.000631576 4.82839 0.0640492 5.15356 0.189718 5.45695L2.03748 4.69158ZM1.99937 4.5H3.99937C3.99937 4.6969 3.96059 4.89187 3.88524 5.07378L2.03748 4.30842L0.189718 3.54305C0.0640492 3.84644 -0.000631566 4.17161 -0.000631571 4.5H1.99937ZM2.03748 4.30842L3.88524 5.07378C3.80989 5.25569 3.69944 5.42098 3.56021 5.56021L2.146 4.146L0.731786 2.73179C0.49958 2.96399 0.315386 3.23966 0.189718 3.54305L2.03748 4.30842ZM2.146 4.146L3.55912 5.56131L4.20612 4.91531L2.793 3.5L1.37988 2.08469L0.732881 2.73069L2.146 4.146ZM2.793 3.5L4.20721 2.08579L2.41421 0.292786L1 1.707L-0.414214 3.12121L1.37879 4.91421L2.793 3.5ZM1 1.707H-1V3.5H1H3V1.707H1ZM1 3.5H-1C-1 3.10217 -0.841965 2.72064 -0.56066 2.43934L0.853553 3.85355L2.26777 5.26777C2.73661 4.79893 3 4.16304 3 3.5H1ZM0.853553 3.85355L-0.56066 2.43934C-0.279356 2.15804 0.102174 2 0.5 2V4V6C1.16304 6 1.79893 5.73661 2.26777 5.26777L0.853553 3.85355ZM0.5 4V2C0.897826 2 1.27936 2.15804 1.56066 2.43934L0.146447 3.85355L-1.26777 5.26777C-0.798927 5.73661 -0.163042 6 0.5 6V4ZM0.146447 3.85355L1.56066 2.43934C1.84196 2.72064 2 3.10217 2 3.5H0H-2C-2 4.16304 -1.73661 4.79893 -1.26777 5.26777L0.146447 3.85355ZM0 3.5H2V0.5H0H-2V3.5H0ZM5.49 5.356L3.81693 4.26017C3.45713 4.8095 3.20905 5.42432 3.08686 6.06952L5.05193 6.44168L7.017 6.81383C7.04145 6.68474 7.09108 6.56173 7.16307 6.45183L5.49 5.356ZM5.05193 6.44168L3.08686 6.06952C2.96467 6.71472 2.97075 7.37768 3.10477 8.02053L5.06268 7.61235L7.02058 7.20418C6.99377 7.07556 6.99255 6.94292 7.017 6.81383L5.05193 6.44168ZM5.06268 7.61235L3.10477 8.02053C3.23879 8.66338 3.49811 9.27354 3.86794 9.81617L5.52061 8.68981L7.17327 7.56345C7.09928 7.45488 7.0474 7.3328 7.02058 7.20418L5.06268 7.61235ZM5.52061 8.68981L3.86794 9.81617C4.23776 10.3588 4.71084 10.8233 5.26017 11.1831L6.356 9.51L7.45183 7.83693C7.34192 7.76494 7.24727 7.67201 7.17327 7.56345L5.52061 8.68981ZM6.356 9.51L5.26017 11.1831C5.8095 11.5429 6.42432 11.7909 7.06952 11.9131L7.44168 9.94807L7.81383 7.983C7.68474 7.95855 7.56173 7.90892 7.45183 7.83693L6.356 9.51ZM7.44168 9.94807L7.06952 11.9131C7.71472 12.0353 8.37768 12.0292 9.02053 11.8952L8.61235 9.93732L8.20418 7.97942C8.07556 8.00623 7.94292 8.00745 7.81383 7.983L7.44168 9.94807ZM8.61235 9.93732L9.02053 11.8952C9.66338 11.7612 10.2735 11.5019 10.8162 11.1321L9.68981 9.47939L8.56345 7.82672C8.45488 7.90072 8.3328 7.9526 8.20418 7.97942L8.61235 9.93732ZM9.68981 9.47939L10.8162 11.1321C11.3588 10.7622 11.8233 10.2892 12.1831 9.73983L10.51 8.644L8.83693 7.54817C8.76494 7.65808 8.67201 7.75273 8.56345 7.82672L9.68981 9.47939ZM10.51 8.644L12.1831 9.73983C12.9097 8.63041 13.1659 7.27777 12.8952 5.97947L10.9373 6.38765L8.97942 6.79582C9.03357 7.05557 8.98232 7.32621 8.83693 7.54817L10.51 8.644ZM10.9373 6.38765L12.8952 5.97947C12.6246 4.68118 11.8492 3.54358 10.7398 2.81693L9.644 4.49L8.54817 6.16307C8.77014 6.30845 8.92526 6.53606 8.97942 6.79582L10.9373 6.38765ZM9.644 4.49L10.7398 2.81693C9.63041 2.09028 8.27777 1.83411 6.97947 2.10477L7.38765 4.06268L7.79582 6.02058C8.05557 5.96643 8.3262 6.01769 8.54817 6.16307L9.644 4.49ZM7.38765 4.06268L6.97947 2.10477C5.68118 2.37543 4.54358 3.15075 3.81693 4.26017L5.49 5.356L7.16307 6.45183C7.30845 6.22986 7.53606 6.07474 7.79582 6.02058L7.38765 4.06268Z" fill="#642D56" mask="url(#path-1-inside-1_3501_833)"/>
</g>
<defs>
<clipPath id="clip0_3501_833">
<rect width="16" height="16" fill="white"/>
</clipPath>
</defs>
</svg>
