<svg width="35" height="35" viewBox="0 0 35 35" fill="none" xmlns="http://www.w3.org/2000/svg">
<path d="M5.83325 28.1648V6.49955C5.83325 5.54189 6.21737 4.62344 6.90109 3.94627C7.58482 3.2691 8.51215 2.88867 9.47909 2.88867H27.7083C28.095 2.88867 28.466 3.04084 28.7394 3.31171C29.0129 3.58258 29.1666 3.94996 29.1666 4.33302V30.3313C29.1666 30.7144 29.0129 31.0818 28.7394 31.3527C28.466 31.6235 28.095 31.7757 27.7083 31.7757H9.47909C8.51215 31.7757 7.58482 31.3953 6.90109 30.7181C6.21737 30.0409 5.83325 29.1225 5.83325 28.1648ZM5.83325 28.1648C5.83325 27.2072 6.21737 26.2887 6.90109 25.6115C7.58482 24.9344 8.51215 24.5539 9.47909 24.5539H29.1666M11.6666 15.8878H23.3333M11.6666 10.1104H20.4166" stroke="black" stroke-width="2" stroke-linecap="round" stroke-linejoin="round"/>
</svg>
