<svg width="26" height="26" viewBox="0 0 26 26" fill="none" xmlns="http://www.w3.org/2000/svg">
<path d="M13.1376 23.8333H5.41667C4.84203 23.8333 4.29093 23.605 3.8846 23.1987C3.47827 22.7924 3.25 22.2413 3.25 21.6666V6.49996C3.25 5.92532 3.47827 5.37422 3.8846 4.96789C4.29093 4.56157 4.84203 4.33329 5.41667 4.33329H20.5833C21.158 4.33329 21.7091 4.56157 22.1154 4.96789C22.5217 5.37422 22.75 5.92532 22.75 6.49996V12.052M17.3333 2.16663V6.49996M3.25 10.8333H22.75M8.66667 2.16663V6.49996M15.8383 20.3666C15.6104 20.129 15.433 19.8477 15.3168 19.5396C15.2006 19.2315 15.148 18.9031 15.1622 18.5742C15.1764 18.2452 15.2572 17.9226 15.3995 17.6257C15.5418 17.3288 15.7428 17.0638 15.9904 16.8467C16.2379 16.6296 16.5269 16.4649 16.8398 16.3626C17.1528 16.2603 17.4832 16.2224 17.8112 16.2513C18.1392 16.2801 18.4579 16.3751 18.7482 16.5306C19.0384 16.686 19.2942 16.8986 19.5 17.1556C19.7068 16.9013 19.9628 16.6913 20.2526 16.5382C20.5425 16.3851 20.8602 16.2921 21.1868 16.2646C21.5135 16.2372 21.8423 16.2758 22.1536 16.3784C22.465 16.4809 22.7524 16.6452 22.9988 16.8614C23.2452 17.0776 23.4454 17.3413 23.5875 17.6367C23.7297 17.932 23.8108 18.253 23.826 18.5805C23.8412 18.9079 23.7902 19.2351 23.676 19.5423C23.5619 19.8496 23.3869 20.1307 23.1617 20.3688L20.3168 23.4628C20.2153 23.5797 20.0899 23.6734 19.9491 23.7376C19.8083 23.8018 19.6553 23.835 19.5005 23.835C19.3458 23.835 19.1928 23.8018 19.052 23.7376C18.9111 23.6734 18.7857 23.5797 18.6842 23.4628L15.8383 20.3666Z" stroke="black" stroke-width="2" stroke-linecap="round" stroke-linejoin="round"/>
</svg>
