<svg width="50" height="50" viewBox="0 0 50 50" fill="none" xmlns="http://www.w3.org/2000/svg">
<path d="M37.5001 41.2672C37.5001 37.9838 36.1831 34.8348 33.8389 32.5131C31.4947 30.1914 28.3153 28.887 25.0001 28.887M25.0001 28.887C21.6849 28.887 18.5055 30.1914 16.1612 32.5131C13.817 34.8348 12.5001 37.9838 12.5001 41.2672M25.0001 28.887C29.6025 28.887 33.3334 25.1918 33.3334 20.6336C33.3334 16.0753 29.6025 12.3801 25.0001 12.3801C20.3977 12.3801 16.6667 16.0753 16.6667 20.6336C16.6667 25.1918 20.3977 28.887 25.0001 28.887ZM45.8334 24.7603C45.8334 36.1559 36.506 45.3939 25.0001 45.3939C13.4941 45.3939 4.16675 36.1559 4.16675 24.7603C4.16675 13.3647 13.4941 4.12671 25.0001 4.12671C36.506 4.12671 45.8334 13.3647 45.8334 24.7603Z" stroke="black" stroke-width="2" stroke-linecap="round" stroke-linejoin="round"/>
</svg>
