<svg width="26" height="26" viewBox="0 0 26 26" fill="none" xmlns="http://www.w3.org/2000/svg">
<path d="M17.3334 15.1666V17.55L19.0667 18.6333M17.3334 4.33329H19.5C20.0747 4.33329 20.6258 4.56157 21.0321 4.96789C21.4384 5.37422 21.6667 5.92532 21.6667 6.49996V7.40129M8.66671 4.33329H6.50004C5.9254 4.33329 5.3743 4.56157 4.96798 4.96789C4.56165 5.37422 4.33337 5.92532 4.33337 6.49996V21.6666C4.33337 22.2413 4.56165 22.7924 4.96798 23.1987C5.3743 23.605 5.9254 23.8333 6.50004 23.8333H8.66671M23.8334 17.3333C23.8334 20.9231 20.9232 23.8333 17.3334 23.8333C13.7435 23.8333 10.8334 20.9231 10.8334 17.3333C10.8334 13.7434 13.7435 10.8333 17.3334 10.8333C20.9232 10.8333 23.8334 13.7434 23.8334 17.3333ZM9.75004 2.16663H16.25C16.8483 2.16663 17.3334 2.65165 17.3334 3.24996V5.41663C17.3334 6.01493 16.8483 6.49996 16.25 6.49996H9.75004C9.15173 6.49996 8.66671 6.01493 8.66671 5.41663V3.24996C8.66671 2.65165 9.15173 2.16663 9.75004 2.16663Z" stroke="#222222" stroke-width="2" stroke-linecap="round" stroke-linejoin="round"/>
</svg>
