<svg width="50" height="50" viewBox="0 0 50 50" fill="none" xmlns="http://www.w3.org/2000/svg">
<rect width="50" height="50" rx="10" fill="#F2E7F4"/>
<path d="M29 27V29.2L30.6 30.2M29 17H31C31.5304 17 32.0391 17.2107 32.4142 17.5858C32.7893 17.9609 33 18.4696 33 19V19.832M21 17H19C18.4696 17 17.9609 17.2107 17.5858 17.5858C17.2107 17.9609 17 18.4696 17 19V33C17 33.5304 17.2107 34.0391 17.5858 34.4142C17.9609 34.7893 18.4696 35 19 35H21M35 29C35 32.3137 32.3137 35 29 35C25.6863 35 23 32.3137 23 29C23 25.6863 25.6863 23 29 23C32.3137 23 35 25.6863 35 29ZM22 15H28C28.5523 15 29 15.4477 29 16V18C29 18.5523 28.5523 19 28 19H22C21.4477 19 21 18.5523 21 18V16C21 15.4477 21.4477 15 22 15Z" stroke="#4B0F3C" stroke-width="2" stroke-linecap="round" stroke-linejoin="round"/>
</svg>
