<svg width="50" height="50" viewBox="0 0 50 50" fill="none" xmlns="http://www.w3.org/2000/svg">
<rect width="50" height="50" rx="10" fill="#F2E7F4"/>
<path d="M25 19V15H21M28 24V26M15 25H17M33 25H35M22 24V26M33 29C33 29.5304 32.7893 30.0391 32.4142 30.4142C32.0391 30.7893 31.5304 31 31 31H21.828C21.2976 31.0001 20.789 31.2109 20.414 31.586L18.212 33.788C18.1127 33.8873 17.9862 33.9549 17.8485 33.9823C17.7108 34.0097 17.568 33.9956 17.4383 33.9419C17.3086 33.8881 17.1977 33.7971 17.1197 33.6804C17.0417 33.5637 17 33.4264 17 33.286V21C17 20.4696 17.2107 19.9609 17.5858 19.5858C17.9609 19.2107 18.4696 19 19 19H31C31.5304 19 32.0391 19.2107 32.4142 19.5858C32.7893 19.9609 33 20.4696 33 21V29Z" stroke="#4B0F3C" stroke-width="2" stroke-linecap="round" stroke-linejoin="round"/>
</svg>
