<svg width="50" height="50" viewBox="0 0 50 50" fill="none" xmlns="http://www.w3.org/2000/svg">
<rect width="50" height="50" rx="10" fill="#F2E7F4"/>
<path d="M31 34C31 31.8783 30.1571 29.8434 28.6569 28.3431C27.1566 26.8429 25.1217 26 23 26M23 26C20.8783 26 18.8434 26.8429 17.3431 28.3431C15.8429 29.8434 15 31.8783 15 34M23 26C25.7614 26 28 23.7614 28 21C28 18.2386 25.7614 16 23 16C20.2386 16 18 18.2386 18 21C18 23.7614 20.2386 26 23 26ZM35 33C35 29.63 33 26.5 31 25C31.6574 24.5068 32.1831 23.8591 32.5306 23.1143C32.878 22.3695 33.0365 21.5505 32.992 20.7298C32.9475 19.9091 32.7014 19.1121 32.2755 18.4092C31.8495 17.7063 31.2569 17.1193 30.55 16.7" stroke="#4B0F3C" stroke-width="2" stroke-linecap="round" stroke-linejoin="round"/>
</svg>
