<svg width="17" height="21" viewBox="0 0 17 21" fill="none" xmlns="http://www.w3.org/2000/svg">
<path fill-rule="evenodd" clip-rule="evenodd" d="M11.1187 13.7437C10.9546 13.9077 10.7321 13.9999 10.5001 13.9999C10.268 13.9999 10.0455 13.9077 9.88143 13.7437L4.93156 8.79381C4.84798 8.71309 4.78133 8.61654 4.73547 8.50979C4.68961 8.40303 4.66547 8.28821 4.66446 8.17203C4.66345 8.05585 4.68559 7.94063 4.72959 7.8331C4.77358 7.72556 4.83855 7.62787 4.92071 7.54571C5.00287 7.46355 5.10056 7.39858 5.2081 7.35459C5.31563 7.31059 5.43085 7.28845 5.54703 7.28946C5.66321 7.29047 5.77803 7.31461 5.88478 7.36047C5.99154 7.40633 6.08809 7.47298 6.16881 7.55656L10.5001 11.8878L14.8313 7.55656C14.9963 7.39717 15.2174 7.30897 15.4468 7.31097C15.6762 7.31296 15.8957 7.40498 16.0579 7.56721C16.2201 7.72945 16.3122 7.94891 16.3141 8.17833C16.3161 8.40775 16.2279 8.62878 16.0686 8.79381L11.1187 13.7437Z" fill="#222222"/>
</svg>
