<svg width="35" height="35" viewBox="0 0 35 35" fill="none" xmlns="http://www.w3.org/2000/svg">
<path d="M21.875 30.3314V18.7766C21.875 18.3935 21.7214 18.0261 21.4479 17.7552C21.1744 17.4844 20.8034 17.3322 20.4167 17.3322H14.5833C14.1966 17.3322 13.8256 17.4844 13.5521 17.7552C13.2786 18.0261 13.125 18.3935 13.125 18.7766V30.3314M4.375 14.4435C4.3749 14.0233 4.46736 13.6081 4.64594 13.227C4.82452 12.8458 5.08491 12.5078 5.40896 12.2365L15.6173 3.57043C16.1437 3.12977 16.8107 2.888 17.5 2.888C18.1893 2.888 18.8563 3.12977 19.3827 3.57043L29.591 12.2365C29.9151 12.5078 30.1755 12.8458 30.3541 13.227C30.5326 13.6081 30.6251 14.0233 30.625 14.4435V27.4427C30.625 28.2088 30.3177 28.9435 29.7707 29.4853C29.2237 30.027 28.4819 30.3314 27.7083 30.3314H7.29167C6.51812 30.3314 5.77625 30.027 5.22927 29.4853C4.68229 28.9435 4.375 28.2088 4.375 27.4427V14.4435Z" stroke="black" stroke-width="2" stroke-linecap="round" stroke-linejoin="round"/>
</svg>
