<svg width="35" height="35" viewBox="0 0 35 35" fill="none" xmlns="http://www.w3.org/2000/svg">
<path d="M32.0834 24.5539C32.0834 25.3201 31.7761 26.0548 31.2291 26.5965C30.6822 27.1383 29.9403 27.4426 29.1667 27.4426H9.95758C9.1841 27.4428 8.44235 27.7472 7.8955 28.289L4.68425 31.4695C4.53944 31.6129 4.35496 31.7105 4.15413 31.7501C3.95329 31.7896 3.74513 31.7693 3.55595 31.6917C3.36676 31.6141 3.20506 31.4827 3.09129 31.3141C2.97751 31.1455 2.91677 30.9472 2.91675 30.7444V7.22171C2.91675 6.45558 3.22404 5.72083 3.77102 5.17909C4.318 4.63735 5.05987 4.33301 5.83341 4.33301H29.1667C29.9403 4.33301 30.6822 4.63735 31.2291 5.17909C31.7761 5.72083 32.0834 6.45558 32.0834 7.22171V24.5539Z" stroke="black" stroke-width="2" stroke-linecap="round" stroke-linejoin="round"/>
</svg>
