<svg width="35" height="35" viewBox="0 0 35 35" fill="none" xmlns="http://www.w3.org/2000/svg">
<path d="M14.1036 5.97403C14.184 5.13679 14.5766 4.35931 15.2048 3.79346C15.833 3.22761 16.6517 2.91406 17.5008 2.91406C18.35 2.91406 19.1686 3.22761 19.7968 3.79346C20.425 4.35931 20.8176 5.13679 20.898 5.97403C20.9463 6.51487 21.1254 7.03623 21.4203 7.49397C21.7151 7.95172 22.117 8.33238 22.5918 8.60372C23.0666 8.87507 23.6005 9.02912 24.1482 9.05284C24.6959 9.07655 25.2413 8.96923 25.7382 8.73996C26.5098 8.39299 27.3842 8.34279 28.1911 8.59911C28.9981 8.85544 29.6798 9.39996 30.1037 10.1267C30.5277 10.8534 30.6634 11.7104 30.4846 12.5308C30.3057 13.3512 29.825 14.0763 29.1361 14.565C28.6875 14.8768 28.3213 15.291 28.0685 15.7725C27.8157 16.2541 27.6837 16.7889 27.6837 17.3317C27.6837 17.8745 27.8157 18.4093 28.0685 18.8908C28.3213 19.3724 28.6875 19.7866 29.1361 20.0983C29.825 20.5871 30.3057 21.3122 30.4846 22.1326C30.6634 22.953 30.5277 23.8099 30.1037 24.5367C29.6798 25.2634 28.9981 25.8079 28.1911 26.0643C27.3842 26.3206 26.5098 26.2704 25.7382 25.9234C25.2413 25.6941 24.6959 25.5868 24.1482 25.6105C23.6005 25.6342 23.0666 25.7883 22.5918 26.0596C22.117 26.331 21.7151 26.7116 21.4203 27.1694C21.1254 27.6271 20.9463 28.1485 20.898 28.6893C20.8176 29.5266 20.425 30.3041 19.7968 30.8699C19.1686 31.4358 18.35 31.7493 17.5008 31.7493C16.6517 31.7493 15.833 31.4358 15.2048 30.8699C14.5766 30.3041 14.184 29.5266 14.1036 28.6893C14.0554 28.1483 13.8763 27.6267 13.5813 27.1688C13.2864 26.7109 12.8844 26.3302 12.4094 26.0588C11.9343 25.7874 11.4003 25.6334 10.8524 25.6098C10.3045 25.5863 9.75895 25.6938 9.26195 25.9234C8.49033 26.2704 7.61597 26.3206 6.80904 26.0643C6.0021 25.8079 5.32033 25.2634 4.89641 24.5367C4.47249 23.8099 4.33674 22.953 4.5156 22.1326C4.69446 21.3122 5.17512 20.5871 5.86404 20.0983C6.31265 19.7866 6.67885 19.3724 6.93167 18.8908C7.18448 18.4093 7.31647 17.8745 7.31647 17.3317C7.31647 16.7889 7.18448 16.2541 6.93167 15.7725C6.67885 15.291 6.31265 14.8768 5.86404 14.565C5.17609 14.076 4.69628 13.3512 4.51785 12.5314C4.33943 11.7115 4.47513 10.8553 4.8986 10.129C5.32206 9.40275 6.00303 8.85836 6.80917 8.60165C7.6153 8.34493 8.48901 8.39423 9.26049 8.73996C9.75743 8.96923 10.3028 9.07655 10.8505 9.05284C11.3982 9.02912 11.9321 8.87507 12.4069 8.60372C12.8817 8.33238 13.2836 7.95172 13.5784 7.49397C13.8733 7.03623 14.0524 6.51487 14.1007 5.97403M21.875 17.3322C21.875 19.7253 19.9162 21.6652 17.5 21.6652C15.0837 21.6652 13.125 19.7253 13.125 17.3322C13.125 14.9391 15.0837 12.9991 17.5 12.9991C19.9162 12.9991 21.875 14.9391 21.875 17.3322Z" stroke="black" stroke-width="2" stroke-linecap="round" stroke-linejoin="round"/>
</svg>
