<svg width="24" height="24" viewBox="0 0 24 24" fill="none" xmlns="http://www.w3.org/2000/svg">
<path d="M9.707 4.793C9.414 4.5 8.943 4.5 8 4.5H7.75V3C7.75 2.80109 7.67098 2.61032 7.53033 2.46967C7.38968 2.32902 7.19891 2.25 7 2.25C6.80109 2.25 6.61032 2.32902 6.46967 2.46967C6.32902 2.61032 6.25 2.80109 6.25 3V4.5H6C5.057 4.5 4.586 4.5 4.293 4.793C4 5.086 4 5.557 4 6.5V6.704C4.20333 6.652 4.40533 6.613 4.606 6.587C5.25 6.5 6.045 6.5 6.91 6.5H7.089C7.954 6.5 8.748 6.5 9.393 6.587C9.59433 6.61233 9.79633 6.65133 9.999 6.704V6.5C9.999 5.557 10 5.086 9.707 4.793Z" fill="black"/>
<path fill-rule="evenodd" clip-rule="evenodd" d="M2 21.25C1.80109 21.25 1.61032 21.329 1.46967 21.4697C1.32902 21.6103 1.25 21.8011 1.25 22C1.25 22.1989 1.32902 22.3897 1.46967 22.5303C1.61032 22.671 1.80109 22.75 2 22.75H22C22.1989 22.75 22.3897 22.671 22.5303 22.5303C22.671 22.3897 22.75 22.1989 22.75 22C22.75 21.8011 22.671 21.6103 22.5303 21.4697C22.3897 21.329 22.1989 21.25 22 21.25H21V7.77199C21 6.43199 21 5.76099 20.644 5.24699C20.288 4.73299 19.66 4.49699 18.404 4.02699C15.949 3.10599 14.722 2.64599 13.861 3.24199C13 3.83999 13 5.14999 13 7.77199V10.5H13.09C13.955 10.5 14.749 10.5 15.394 10.587C16.105 10.682 16.857 10.907 17.474 11.525C18.093 12.143 18.318 12.895 18.414 13.605C18.5 14.251 18.5 15.045 18.5 15.911V21.25H17V16C17 14.114 17 13.172 16.414 12.586C15.828 12 14.886 12 13 12H11C9.114 12 8.172 12 7.586 12.586C7 13.172 7 14.114 7 16V21.25H5.5V15.91C5.5 15.045 5.5 14.251 5.587 13.606C5.682 12.895 5.907 12.143 6.525 11.526C7.143 10.907 7.895 10.682 8.605 10.586C9.251 10.5 10.045 10.5 10.911 10.5H10.983C10.943 9.56399 10.818 8.98999 10.414 8.58599C9.828 7.99999 8.886 7.99999 7 7.99999C5.114 7.99999 4.172 7.99999 3.586 8.58599C3 9.17199 3 10.114 3 12V21.25H2ZM9.25 15C9.25 14.8011 9.32902 14.6103 9.46967 14.4697C9.61032 14.329 9.80109 14.25 10 14.25H14C14.1989 14.25 14.3897 14.329 14.5303 14.4697C14.671 14.6103 14.75 14.8011 14.75 15C14.75 15.1989 14.671 15.3897 14.5303 15.5303C14.3897 15.671 14.1989 15.75 14 15.75H10C9.80109 15.75 9.61032 15.671 9.46967 15.5303C9.32902 15.3897 9.25 15.1989 9.25 15ZM9.25 18C9.25 17.8011 9.32902 17.6103 9.46967 17.4697C9.61032 17.329 9.80109 17.25 10 17.25H14C14.1989 17.25 14.3897 17.329 14.5303 17.4697C14.671 17.6103 14.75 17.8011 14.75 18C14.75 18.1989 14.671 18.3897 14.5303 18.5303C14.3897 18.671 14.1989 18.75 14 18.75H10C9.80109 18.75 9.61032 18.671 9.46967 18.5303C9.32902 18.3897 9.25 18.1989 9.25 18Z" fill="#642D56"/>
</svg>
