<svg width="24" height="24" viewBox="0 0 24 24" fill="none" xmlns="http://www.w3.org/2000/svg">
<path d="M19.12 10C18.0859 11.8465 16.6406 13.4302 14.8961 14.6285C13.1516 15.8268 11.1547 16.6074 9.06002 16.91H8.61002C7.76351 16.9083 6.94922 16.5853 6.33177 16.0062C5.71433 15.4271 5.3398 14.6352 5.28391 13.7905C5.22802 12.9459 5.49495 12.1115 6.03071 11.4561C6.56648 10.8007 7.33111 10.3732 8.17002 10.26C11.08 9.87 12.86 7.26 13.83 5.2C13.8688 5.10677 13.926 5.02233 13.9983 4.95176C14.0705 4.88118 14.1562 4.82591 14.2503 4.78927C14.3444 4.75263 14.4449 4.73537 14.5459 4.73853C14.6468 4.74168 14.7461 4.76518 14.8377 4.80763C14.9293 4.85008 15.0114 4.91059 15.0791 4.98554C15.1468 5.06049 15.1986 5.14833 15.2315 5.2438C15.2644 5.33927 15.2777 5.44041 15.2706 5.54114C15.2634 5.64187 15.236 5.74012 15.19 5.83C14.06 8.29 12 11.3 8.37002 11.78C7.90695 11.8601 7.49208 12.1143 7.21049 12.4906C6.92891 12.8668 6.80196 13.3366 6.85568 13.8034C6.9094 14.2703 7.13972 14.6989 7.4994 15.0014C7.85908 15.3038 8.32086 15.4572 8.79002 15.43C17.44 14.27 20.16 4.88 21 0.75H5.05002C4.6727 1.03624 4.33626 1.37268 4.05002 1.75C3.16002 3.25 4.63002 5.24 6.56002 5.95C5.22429 6.66836 4.12029 7.75162 3.37671 9.07347C2.63314 10.3953 2.28063 11.9013 2.36029 13.4159C2.43995 14.9304 2.94849 16.3911 3.82662 17.6277C4.70476 18.8642 5.91631 19.8257 7.32002 20.4V23.24H21.45C21.45 17.24 19.45 16.62 19.03 12.67C18.9543 11.7796 18.9846 10.8833 19.12 10Z" fill="#642D56"/>
</svg>
