<svg width="35" height="35" viewBox="0 0 35 35" fill="none" xmlns="http://www.w3.org/2000/svg">
<path d="M23.3334 30.3313V27.4426C23.3334 25.9104 22.7188 24.4409 21.6249 23.3574C20.5309 22.2739 19.0472 21.6652 17.5001 21.6652H8.75008C7.20298 21.6652 5.71925 22.2739 4.62529 23.3574C3.53133 24.4409 2.91675 25.9104 2.91675 27.4426V30.3313M23.3334 4.51788C24.5843 4.83906 25.6921 5.56253 26.4829 6.57473C27.2738 7.58693 27.7029 8.83056 27.7029 10.1104C27.7029 11.3903 27.2738 12.6339 26.4829 13.6461C25.6921 14.6583 24.5843 15.3818 23.3334 15.7029M32.0834 30.3313V27.4426C32.0824 26.1625 31.6523 24.919 30.8604 23.9073C30.0685 22.8956 28.9599 22.173 27.7084 21.853M18.9584 10.1104C18.9584 13.3012 16.3467 15.8878 13.1251 15.8878C9.90342 15.8878 7.29175 13.3012 7.29175 10.1104C7.29175 6.91964 9.90342 4.33301 13.1251 4.33301C16.3467 4.33301 18.9584 6.91964 18.9584 10.1104Z" stroke="black" stroke-width="2" stroke-linecap="round" stroke-linejoin="round"/>
</svg>
